<svg xmlns="http://www.w3.org/2000/svg" viewBox="0 0 32 32" width="32" height="32">
  <defs>
    <linearGradient id="clapperGradient" x1="0%" y1="0%" x2="100%" y2="100%">
      <stop offset="0%" style="stop-color:#333333"/>
      <stop offset="50%" style="stop-color:#333333"/>
      <stop offset="100%" style="stop-color:#333333"/>
    </linearGradient>
  </defs>
  
  <!-- Claqueta simplificada para favicon -->
  <path fill="url(#clapperGradient)" d="M2 8l28-5v-1L28 1 2 6v2z"/>
  <path fill="url(#clapperGradient)" d="M26 3l2 11-3-2-2-9z"/>
  <path fill="url(#clapperGradient)" d="M21 4l3 8-3-2-3-6z"/>
  <path fill="url(#clapperGradient)" d="M16 5l3 7-3-1-3-6z"/>
  <path fill="url(#clapperGradient)" d="M11 6l3 6-3-1-3-5z"/>
  <path fill="url(#clapperGradient)" d="M6 7l3 5-3-1-3-4z"/>
  
  <!-- Cuerpo principal -->
  <rect x="2" y="10" width="28" height="20" rx="2" fill="url(#clapperGradient)"/>
  
  <!-- Detalles internos simplificados -->
  <rect x="4" y="12" width="8" height="4" fill="#ffffff" opacity="0.9"/>
  <rect x="4" y="18" width="8" height="8" fill="#ffffff" opacity="0.9"/>
  <rect x="14" y="12" width="6" height="4" fill="#ffffff" opacity="0.9"/>
  <rect x="14" y="18" width="6" height="8" fill="#ffffff" opacity="0.9"/>
  <rect x="22" y="12" width="6" height="4" fill="#ffffff" opacity="0.9"/>
  <rect x="22" y="18" width="6" height="8" fill="#ffffff" opacity="0.9"/>
</svg>